<svg data-v-423bf9ae="" xmlns="http://www.w3.org/2000/svg" viewBox="0 0 249.65751428621817 60" class="font"><!----><!----><defs data-v-423bf9ae=""><linearGradient data-v-423bf9ae="" gradientTransform="rotate(25)" id="ec8283ec-70a7-4a9e-94dc-ec38c502f196" x1="0%" y1="0%" x2="100%" y2="0%"><stop data-v-423bf9ae="" offset="0%" style="stop-color: rgb(9, 120, 166); stop-opacity: 1;"></stop><stop data-v-423bf9ae="" offset="100%" style="stop-color: rgb(251, 148, 71); stop-opacity: 1;"></stop></linearGradient></defs><g data-v-423bf9ae="" id="3778f370-12fc-41a5-b3f9-288c13a34a08" fill="url(#ec8283ec-70a7-4a9e-94dc-ec38c502f196)" transform="matrix(5.870841333886128,0,0,5.870841333886128,-4.520549002663699,-11.213307690039436)"><path d="M1.74 12.07L0.77 12.07L2.21 1.93L2.37 1.93L6.49 10.25L10.57 1.93L10.73 1.93L12.20 12.07L11.19 12.07L10.20 4.82L6.62 12.07L6.36 12.07L2.73 4.77L1.74 12.07ZM17.57 4.22L17.57 4.22Q19.30 4.22 20.44 5.47L20.44 5.47Q21.47 6.62 21.47 8.18L21.47 8.18Q21.47 9.75 20.38 10.92Q19.28 12.09 17.57 12.09L17.57 12.09Q15.85 12.09 14.76 10.92Q13.67 9.75 13.67 8.18L13.67 8.18Q13.67 6.62 14.70 5.48L14.70 5.48Q15.84 4.22 17.57 4.22ZM17.57 5.16L17.57 5.16Q16.37 5.16 15.51 6.05Q14.65 6.94 14.65 8.20L14.65 8.20Q14.65 9.01 15.04 9.72Q15.44 10.42 16.11 10.80Q16.78 11.18 17.57 11.18L17.57 11.18Q18.38 11.18 19.04 10.80Q19.71 10.42 20.10 9.72Q20.49 9.01 20.49 8.20L20.49 8.20Q20.49 6.94 19.63 6.05Q18.76 5.16 17.57 5.16ZM23.39 12.04L23.39 1.91L25.41 1.91Q27.15 1.91 27.75 2.06L27.75 2.06Q28.63 2.28 29.18 2.94Q29.72 3.60 29.72 4.61L29.72 4.61Q29.72 5.62 29.19 6.28Q28.65 6.94 27.71 7.16L27.71 7.16Q27.02 7.33 25.13 7.33L25.13 7.33L24.40 7.33L24.40 12.04L23.39 12.04ZM26.20 2.89L24.40 2.89L24.40 6.34L26.13 6.36Q27.16 6.36 27.64 6.17Q28.12 5.98 28.40 5.55Q28.68 5.13 28.68 4.61L28.68 4.61Q28.68 4.09 28.40 3.67Q28.12 3.25 27.67 3.07Q27.22 2.89 26.20 2.89L26.20 2.89ZM31.21 12.07L31.21 8.65L31.21 7.75Q31.32 7.08 31.53 6.65L31.53 6.65Q32.01 5.48 32.81 4.93Q33.62 4.38 34.15 4.38L34.15 4.38Q34.55 4.38 35 4.64L35 4.64L34.50 5.45Q33.87 5.22 33.24 5.82Q32.61 6.43 32.38 7.15L32.38 7.15Q32.20 7.79 32.20 9.54L32.20 9.54L32.20 12.07L31.21 12.07ZM39.36 4.22L39.36 4.22Q41.09 4.22 42.23 5.47L42.23 5.47Q43.29 6.61 43.29 8.18L43.29 8.18Q43.30 12.07 43.29 12.13L43.29 12.13Q42.63 12.13 42.27 12.13L42.27 12.13Q42.27 12.08 42.27 10.42L42.27 10.42Q41.47 11.92 39.36 12.09L39.36 12.09Q37.64 12.09 36.55 10.92Q35.46 9.75 35.46 8.18L35.46 8.18Q35.46 6.62 36.49 5.48L36.49 5.48Q37.63 4.22 39.36 4.22ZM39.36 5.16L39.36 5.16Q38.17 5.16 37.30 6.05Q36.44 6.94 36.44 8.20L36.44 8.20Q36.44 9.01 36.88 9.76Q37.32 10.51 38.38 11.03L38.38 11.03Q41.02 11.62 42.13 8.63L42.13 8.63Q42.19 7.68 41.92 6.80L41.92 6.80Q41.73 6.41 41.40 6.05L41.40 6.05Q40.56 5.16 39.36 5.16Z"></path></g><!----><!----></svg>